<mxfile host="app.diagrams.net" modified="2023-05-07T06:03:08.821Z" agent="Mozilla/5.0 (Macintosh; Intel Mac OS X 10_15_7) AppleWebKit/605.1.15 (KHTML, like Gecko) Version/16.4 Safari/605.1.15" version="21.2.7" etag="wkfQ6vNgQ-8tkqbNHYKD" type="github">
  <diagram name="Page-1" id="_D0EBSgsin9MypPUunkH">
    <mxGraphModel>
      <root>
        <mxCell id="0" />
        <mxCell id="1" parent="0" />
      </root>
    </mxGraphModel>
  </diagram>
</mxfile>
